<svg xmlns="http://www.w3.org/2000/svg" viewBox="0 0 512 512">
  <!-- Background -->
  <rect width="512" height="512" rx="100" fill="#03080f"/>
  <!-- Outer ring -->
  <circle cx="256" cy="256" r="210" fill="none" stroke="#84cc16" stroke-width="16"/>
  <!-- Football hex patches -->
  <circle cx="256" cy="256" r="170" fill="#0d1829"/>
  <!-- Center hexagon -->
  <polygon points="256,140 320,183 320,259 256,302 192,259 192,183" fill="#84cc16" opacity="0.9"/>
  <!-- Side patches -->
  <polygon points="256,302 320,259 356,300 340,360 256,368" fill="#84cc16" opacity="0.5"/>
  <polygon points="256,302 192,259 156,300 172,360 256,368" fill="#84cc16" opacity="0.5"/>
  <polygon points="320,183 356,142 380,196 356,240 320,259" fill="#84cc16" opacity="0.5"/>
  <polygon points="192,183 156,142 132,196 156,240 192,259" fill="#84cc16" opacity="0.5"/>
  <!-- Text -->
  <text x="256" y="460" font-family="Cairo, Arial" font-size="64" font-weight="900" fill="#84cc16" text-anchor="middle">كوورة</text>
</svg>
